<?xml version="1.0" standalone="no"?>
<!DOCTYPE svg PUBLIC "-//W3C//DTD SVG 20010904//EN"
 "http://www.w3.org/TR/2001/REC-SVG-20010904/DTD/svg10.dtd">
<svg version="1.0" xmlns="http://www.w3.org/2000/svg"
 width="128.000000pt" height="126.000000pt" viewBox="0 0 128.000000 126.000000"
 preserveAspectRatio="xMidYMid meet">

<g transform="translate(0.000000,126.000000) scale(0.100000,-0.100000)"
fill="#000000" stroke="none">
<path d="M555 1036 c-72 -34 -319 -286 -334 -341 -15 -55 -14 -99 4 -143 19
-45 274 -305 327 -333 47 -24 127 -25 176 -2 57 26 287 257 317 317 30 60 32
124 6 181 -11 24 -75 95 -162 181 -179 174 -223 193 -334 140z m277 -203 c206
-204 206 -208 9 -404 -195 -196 -204 -196 -390 -15 -208 203 -208 216 -3 419
l139 137 53 0 53 0 139 -137z"/>
</g>
</svg>
