<?xml version="1.0" encoding="UTF-8"?>
<svg id="Layer_2" data-name="Layer 2" xmlns="http://www.w3.org/2000/svg" xmlns:xlink="http://www.w3.org/1999/xlink" viewBox="0 0 32 32">
  <defs>
    <style>
      .cls-1 {
        clip-path: url(#clippath);
      }

      .cls-2 {
        fill: none;
      }

      .cls-2, .cls-3 {
        stroke-width: 0px;
      }

      .cls-3 {
        fill: #7a64d3;
      }
    </style>
    <clipPath id="clippath">
      <rect class="cls-2" width="32" height="32"/>
    </clipPath>
  </defs>
  <g id="Layer_1-2" data-name="Layer 1">
    <g class="cls-1">
      <g>
        <path class="cls-3" d="m16,11.57c-1.07,0-2.11.39-2.91,1.1-.81.71-1.33,1.68-1.48,2.74,1.39-.59,2.88-.89,4.39-.89s3,.3,4.39.89c-.15-1.06-.67-2.04-1.48-2.74-.81-.71-1.84-1.1-2.91-1.1Z"/>
        <path class="cls-3" d="m11.83,17.48c.31.86.87,1.61,1.62,2.14.75.53,1.64.81,2.55.81s1.81-.28,2.55-.81c.75-.53,1.31-1.27,1.62-2.14-1.3-.65-2.72-.99-4.17-.99s-2.88.34-4.17.99h0Z"/>
        <path class="cls-3" d="m21.86,18.57c-.5,1.14-1.32,2.11-2.36,2.79-1.04.68-2.26,1.04-3.5,1.04s-2.46-.36-3.5-1.04c-1.04-.68-1.86-1.65-2.36-2.79-.82.66-1.53,1.46-2.09,2.35.84,1.35,2.01,2.47,3.4,3.25,1.39.78,2.96,1.18,4.55,1.18s3.16-.41,4.55-1.18c1.39-.78,2.56-1.89,3.4-3.25-.56-.9-1.26-1.69-2.09-2.35Z"/>
        <path class="cls-3" d="m16,0c-3.16,0-6.26.94-8.89,2.7-2.63,1.76-4.68,4.26-5.89,7.18C0,12.8-.31,16.02.31,19.12c.62,3.1,2.14,5.95,4.38,8.19,2.24,2.24,5.09,3.76,8.19,4.38,3.1.62,6.32.3,9.24-.91,2.92-1.21,5.42-3.26,7.18-5.89,1.76-2.63,2.7-5.72,2.7-8.89,0-4.24-1.69-8.31-4.69-11.31C24.31,1.69,20.24,0,16,0h0Zm10.2,20.92c-.35.73-.79,1.43-1.29,2.07-1.06,1.35-2.41,2.44-3.95,3.2-1.54.75-3.24,1.14-4.95,1.14s-3.41-.39-4.95-1.14c-1.54-.75-2.89-1.84-3.95-3.2-.5-.64-.94-1.33-1.29-2.07-.74-1.53-1.13-3.21-1.13-4.91,0-1.7.38-3.38,1.12-4.92.74-1.53,1.81-2.88,3.14-3.94,1.33-1.06,2.88-1.81,4.54-2.19,1.66-.38,3.38-.38,5.04,0,1.66.38,3.21,1.13,4.54,2.19,1.33,1.06,2.41,2.41,3.14,3.94.74,1.53,1.12,3.21,1.12,4.92,0,1.71-.38,3.39-1.13,4.92Z"/>
        <path class="cls-3" d="m16,6.65c-1.47,0-2.93.35-4.24,1.02-1.31.67-2.45,1.64-3.32,2.83-.87,1.19-1.44,2.57-1.68,4.02-.23,1.45-.12,2.94.33,4.35.71-.92,1.57-1.72,2.53-2.37-.01-.16-.02-.33-.02-.5,0-1.7.67-3.33,1.87-4.53,1.2-1.2,2.83-1.87,4.53-1.87s3.33.67,4.53,1.87c1.2,1.2,1.87,2.83,1.87,4.53,0,.17,0,.33-.02.5.96.65,1.81,1.45,2.52,2.37.45-1.4.56-2.89.32-4.34-.24-1.45-.81-2.83-1.68-4.02-.87-1.19-2-2.16-3.32-2.82-1.31-.67-2.76-1.02-4.24-1.02h0Z"/>
      </g>
    </g>
  </g>
</svg>