<svg width="198" height="65" viewBox="0 0 198 65" fill="none" xmlns="http://www.w3.org/2000/svg">
<g clip-path="url(#clip0_795_4079)">
<path d="M0 65H198V0H0V65Z" fill="#EE0000"/>
<path d="M175.649 43.8281H179.526V49.6334H163.297V44.1809H166.563L161.594 37.0676L156.768 44.1809H160.034V49.6334H146.259V43.8281H149.903L157.807 32.0196L150.002 21.1662H147.007V15.3638H162.118V20.8163H159.038L163.818 27.2239L168.173 20.8163H165.239V15.3638H179.526V21.1662H175.034L167.416 32.3724L175.649 43.8281ZM132.088 15.3638H144.25V21.1662H141.057V40.346C141.057 48.3197 133.244 50.0378 128.423 50.0378C121.751 50.0378 115.586 47.465 115.586 39.084V21.1662H111.798V15.3638H126.752V21.1662H123.963V38.5821C123.963 41.9608 125.556 44.2325 129.285 44.2325C132.414 44.2325 134.938 42.7697 134.938 38.8804V21.1662H132.088V15.3638ZM36.7815 15.3638H50.1168V21.1662H47.0253L37.7887 49.642H30.2491L20.6778 21.1662H16.8905V15.3638H32.7905V21.1662H29.0993L34.4468 38.5218H34.54L40.3329 21.1662H36.7815V15.3638ZM105.837 38.7226H112.13V49.6334H84.7783V43.8281H89.3661V21.1662H84.7783V15.3638H102.431V21.1662H97.7439V43.8281H105.837V38.7226ZM52.8736 15.3638H80.8251V26.2143H74.7207V21.1662H64.736V29.0423H72.782V34.8448H64.736V43.8281H74.7207V38.7341H80.8251V49.6334H52.5766V43.8281H56.3639V21.1662H52.8736V15.3638ZM179.113 32.4871C179.113 30.0261 181.005 28.1675 183.511 28.1675C186.018 28.1675 187.907 30.0261 187.907 32.4871C187.907 34.9624 186.026 36.8296 183.534 36.8296C181.014 36.8296 179.113 34.9624 179.113 32.4871ZM178.1 32.4986C178.1 35.5389 180.414 37.8306 183.488 37.8306C186.588 37.8306 188.926 35.5389 188.926 32.4986C188.926 29.4582 186.597 27.1637 183.508 27.1637C180.425 27.1637 178.1 29.4582 178.1 32.4986ZM183.581 30.4306C184.242 30.4306 184.606 30.726 184.606 31.2624C184.606 31.9479 184.05 32.0913 183.581 32.0913C183.581 32.0913 182.847 32.0913 182.757 32.0913C182.757 32.0052 182.757 30.5166 182.757 30.4306C182.847 30.4306 183.581 30.4306 183.581 30.4306ZM181.683 29.55H181.636V35.3123H182.807C182.807 35.3123 182.807 33.0636 182.807 32.9747C182.885 32.9747 183.304 32.9747 183.307 32.9747C183.307 33.0148 184.775 35.2893 184.775 35.2893L185.977 35.3123H186.064C186.064 35.3123 184.51 32.9259 184.449 32.837C185.261 32.6047 185.729 32.0396 185.729 31.2624C185.729 30.1724 184.97 29.55 183.648 29.55H181.683Z" fill="white"/>
</g>
<defs>
<clipPath id="clip0_795_4079">
<rect width="198" height="65" fill="white"/>
</clipPath>
</defs>
</svg>
